<?xml version="1.0" encoding="UTF-8"?>
<svg id="Capa_1" data-name="Capa 1" xmlns="http://www.w3.org/2000/svg" viewBox="0 0 47.76 68.84">
  <defs>
    <style>
      .cls-1 {
        fill: #feaa09;
      }

      .cls-2 {
        fill: #fd6306;
      }
    </style>
  </defs>
  <path class="cls-1" d="M46.18,54.95c-.6,1.8-1.58,3.4-2.43,5.08-2.07,4.08-5.61,6.14-9.77,7.44-3.25,1.02-6.59,1.45-9.99,1.36-2.95-.08-5.86-.5-8.71-1.35-3.72-1.11-7.08-2.83-9.94-5.48-.27-.25-.6-.45-.75-.81,.03-.96-.25-1.88-.39-2.82-.22-1.6-.32-3.17,.1-4.74,.46-1.7,1.64-2.46,3.11-1.9,.58,.22,1.12,.53,1.64,.87,1.32,.85,2.59,1.78,4.05,2.38,2.14,.88,3.85,.52,5.48-1.08,.41-.41,.7-.89,1.03-1.35,.87-1.21,1.5-2.55,1.85-3.98,.59-2.4,.66-4.84,.04-7.27-.58-2.28-1.55-4.37-2.79-6.36-.52-.84-1.12-1.62-1.83-2.52,.6,.13,1.01,.29,1.43,.39,3.39,.86,6.17-.78,7.95-3.42,.92-1.36,1.82-2.73,2.8-4.05,.66-.9,1.25-1.79,1.06-2.98-.03-.21-.08-.46,.11-.74,.94,1.49,1.18,3.12,1.14,4.76-.06,2.14-.71,4.14-1.82,5.99-.44,.73-.91,1.45-1.32,2.19-1.21,2.21-1.32,4.44-.15,6.72,.95,1.85,2.39,3.14,4.2,4.12,1.61,.87,3.29,1.06,5.04,.66,.57-.13,1.08-.6,1.64-.67,3.22-.4,5.55,1.23,6.63,4.28,.6,1.72,.64,3.5,.58,5.29Z"/>
  <path class="cls-2" d="M46.18,54.95c.06-1.79,.03-3.57-.58-5.29-1.07-3.04-3.4-4.68-6.63-4.28-.57,.07-1.07,.54-1.64,.67-1.75,.4-3.43,.21-5.04-.66-1.81-.97-3.25-2.27-4.2-4.12-1.17-2.28-1.06-4.51,.15-6.72,.41-.75,.88-1.46,1.32-2.19,1.1-1.84,1.76-3.85,1.82-5.99,.04-1.64-.2-3.27-1.14-4.76-.19,.28-.14,.53-.11,.74,.19,1.2-.39,2.08-1.06,2.98-.97,1.32-1.88,2.69-2.8,4.05-1.78,2.65-4.56,4.29-7.95,3.42-.42-.11-.83-.26-1.43-.39,.71,.9,1.31,1.69,1.83,2.52,1.24,1.99,2.21,4.08,2.79,6.36,.62,2.43,.56,4.86-.04,7.27-.35,1.42-.99,2.77-1.85,3.98-.33,.46-.62,.95-1.03,1.35-1.63,1.6-3.35,1.96-5.48,1.08-1.46-.6-2.73-1.54-4.05-2.38-.53-.34-1.07-.65-1.64-.87-1.46-.55-2.65,.2-3.11,1.9-.42,1.58-.33,3.15-.1,4.74,.13,.94,.42,1.86,.39,2.82-1.87-1.75-3.24-3.84-4-6.28-1.47-4.74-.06-8.9,2.73-12.75,.44-.6,.88-1.21,1.46-1.68,.16,.12,.1,.24,.08,.35-.46,2.82,.77,5.2,3.36,6.51,.73,.37,1.48,.64,2.31,.64,1.66,0,2.62-1.07,2.54-2.91-.08-1.77-.71-3.38-1.44-4.97-1.31-2.88-2.13-5.87-1.75-9.08,.56-4.71,3.11-8.15,7.04-10.93-.4,1.27-.78,2.35-1.03,3.47-.32,1.41,.31,2.91,1.6,3.67,1.29,.76,3.06,.72,3.97-.36,1.73-2.04,3.71-3.88,5.17-6.13,2.43-3.74,2.21-7.5-.16-11.2-.71-1.12-1.53-2.16-2.58-3.07,.34-.22,.63-.14,.91-.03,6.18,2.45,10.46,6.71,12.84,12.99,1.3,3.43,.76,6.52-.79,9.62-.82,1.66-1.85,3.2-2.57,4.91-.45,1.07-.77,2.17-.15,3.3,1.37,2.49,4.34,2.69,5.94,.38,.64-.92,1.06-1.95,1.38-3.11,.94,.77,1.61,1.7,2.3,2.61,1.81,2.39,3.22,4.99,3.76,7.98,.49,2.7,.24,5.37-.61,7.98-.2,.63-.35,1.29-.72,1.85Z"/>
  <path class="cls-2" d="M42.91,25.05c-.09-.8,.17-1.48,.23-2.18,.36-4.14-.45-7.87-3.5-10.95-2.58-2.61-3.51-5.87-3.27-9.49,.05-.78,0-1.58,.42-2.43,.24,.91,.45,1.74,.76,2.54,.49,1.25,1.23,2.31,2.4,3,2.87,1.69,4.91,4.08,6.05,7.2,.76,2.09,.66,4.23,.1,6.34-.5,1.92-1.4,3.67-2.49,5.32-.16,.24-.31,.48-.7,.65Z"/>
  <path class="cls-2" d="M18.96,24.36c-.49-2.93-.35-5.59,1.37-8.03,1.13-1.6,1.41-3.46,1.29-5.39-.02-.38-.06-.75-.11-1.31,1.29,1.44,2.22,2.88,2.88,4.52,.25,.63,.39,1.28,.43,1.95,.08,1.42-.41,2.59-1.54,3.5-1.66,1.33-3.27,2.71-4.31,4.78Z"/>
</svg>