<?xml version="1.0" encoding="UTF-8"?>
<svg id="OBJECTS" xmlns="http://www.w3.org/2000/svg" viewBox="0 0 246.9 45.58">
  <defs>
    <style>
      .cls-1 {
        fill: #fff;
      }
    </style>
  </defs>
  <g>
    <g>
      <polygon class="cls-1" points="38.62 19.95 36.06 15.51 38.62 11.07 43.75 11.07 46.32 15.51 43.75 19.95 38.62 19.95"/>
      <polygon class="cls-1" points="19.43 9.89 17.35 6.29 19.43 2.69 23.59 2.69 25.67 6.29 23.59 9.89 19.43 9.89"/>
      <polygon class="cls-1" points="44.68 3.8 43.58 1.9 44.68 0 46.87 0 47.96 1.9 46.87 3.8 44.68 3.8"/>
      <polygon class="cls-1" points="34.63 6.27 32.87 3.23 34.63 .18 38.15 .18 39.91 3.23 38.15 6.27 34.63 6.27"/>
    </g>
    <g>
      <path class="cls-1" d="M26.7,20.7c0-.57-.46-1.03-1.03-1.03s-1.03,.46-1.03,1.03,.46,1.03,1.03,1.03,1.03-.46,1.03-1.03Z"/>
      <path class="cls-1" d="M29.72,31.33l3.77,6.19,2.5,.69,6.31-10.93-2.26-3.91h-3.69l-4.57-7.91,1.84-3.19-1.91-3.3h-3.55l-2.52,4.36h-8.29l-2.52-4.36h-4.27l-3.66,6.34,4.81,7.47s.08-.01,.12-.01c1.42,0,2.58,1.16,2.58,2.58s-1.16,2.58-2.58,2.58-2.58-1.16-2.58-2.58c0-.62,.23-1.19,.6-1.64l-4.12-6.38L0,27.27l5.55,9.61,11.65-7.66,1.46-5.3,.34-.21s4-2.49,4.13-2.57c-.02-.14-.04-.29-.04-.43,0-1.42,1.16-2.58,2.58-2.58s2.58,1.16,2.58,2.58-1.16,2.58-2.58,2.58c-.53,0-1.02-.16-1.43-.44-.15,.12-.31,.23-.45,.31l-3.36,2.08-1.46,5.3-12.39,8.14,2.88,4.98,9.86-6.23s-.01-.08-.01-.12c0-1.42,1.16-2.58,2.58-2.58s2.58,1.16,2.58,2.58-1.16,2.58-2.58,2.58c-.63,0-1.2-.23-1.64-.61l-9.75,6.16,.08,.14H31.72l3.2-5.54-2.76-.76-.21-.34s-4.17-6.84-4.25-6.96c-.14,.02-.29,.04-.43,.04-1.42,0-2.58-1.16-2.58-2.58s1.16-2.58,2.58-2.58,2.58,1.16,2.58,2.58c0,.53-.16,1.02-.43,1.43,.12,.15,.23,.31,.31,.44Z"/>
      <path class="cls-1" d="M22.92,37.31c0-.57-.46-1.03-1.03-1.03s-1.03,.46-1.03,1.03,.46,1.03,1.03,1.03,1.03-.46,1.03-1.03Z"/>
      <path class="cls-1" d="M12.88,25.33c0-.57-.46-1.03-1.03-1.03s-1.03,.46-1.03,1.03,.46,1.03,1.03,1.03,1.03-.46,1.03-1.03Z"/>
      <path class="cls-1" d="M26.23,29.45c0,.57,.46,1.03,1.03,1.03s1.04-.46,1.04-1.03-.46-1.03-1.04-1.03-1.03,.46-1.03,1.03Z"/>
    </g>
  </g>
  <g>
    <path class="cls-1" d="M63.31,11.23h-6.9v-3.27h17.67v3.27h-6.9V28.78h-3.87V11.23Z"/>
    <path class="cls-1" d="M92.61,25.53v3.24h-15.62V7.96h15.2v3.24h-11.33v5.41h10.05v3.18h-10.05v5.74h11.75Z"/>
    <path class="cls-1" d="M100.78,27.69c-1.7-.92-3.02-2.2-3.99-3.82-.96-1.62-1.44-3.46-1.44-5.5s.49-3.88,1.46-5.5,2.31-2.9,4-3.82c1.7-.92,3.59-1.38,5.7-1.38,1.71,0,3.26,.3,4.67,.89,1.41,.6,2.6,1.46,3.57,2.59l-2.5,2.35c-1.51-1.62-3.36-2.44-5.56-2.44-1.43,0-2.71,.31-3.84,.94-1.13,.62-2.01,1.49-2.65,2.6-.63,1.11-.95,2.37-.95,3.78s.32,2.67,.95,3.78c.63,1.11,1.52,1.98,2.65,2.6s2.41,.94,3.84,.94c2.2,0,4.06-.82,5.56-2.47l2.5,2.38c-.97,1.13-2.17,1.99-3.58,2.59-1.42,.59-2.98,.89-4.68,.89-2.1,0-4-.46-5.7-1.38Z"/>
    <path class="cls-1" d="M136.96,7.96V28.78h-3.18l-11.48-14.1v14.1h-3.84V7.96h3.18l11.48,14.1V7.96h3.84Z"/>
    <path class="cls-1" d="M146.54,27.69c-1.71-.92-3.04-2.2-4.02-3.84s-1.46-3.46-1.46-5.49,.49-3.85,1.46-5.49,2.31-2.92,4.02-3.84c1.71-.92,3.62-1.38,5.74-1.38s4.03,.46,5.74,1.38c1.71,.92,3.04,2.2,4.02,3.82s1.46,3.46,1.46,5.5-.49,3.88-1.46,5.5c-.97,1.63-2.31,2.9-4.02,3.82-1.71,.92-3.62,1.38-5.74,1.38s-4.04-.46-5.74-1.38Zm9.49-2.94c1.11-.62,1.98-1.5,2.62-2.62,.63-1.12,.95-2.38,.95-3.76s-.32-2.64-.95-3.76c-.63-1.12-1.51-1.99-2.62-2.62-1.11-.62-2.36-.94-3.75-.94s-2.64,.31-3.75,.94c-1.11,.62-1.98,1.5-2.62,2.62-.63,1.12-.95,2.38-.95,3.76s.32,2.64,.95,3.76c.63,1.12,1.51,1.99,2.62,2.62,1.11,.62,2.36,.94,3.75,.94s2.64-.31,3.75-.94Z"/>
  </g>
  <g>
    <path class="cls-1" d="M176.11,9.32h-7.5v-1.37h16.51v1.37h-7.5V28.78h-1.52V9.32Z"/>
    <path class="cls-1" d="M203.23,27.41v1.37h-14.37V7.96h13.92v1.37h-12.4v8.21h11.09v1.34h-11.09v8.54h12.85Z"/>
    <path class="cls-1" d="M211.93,27.56c-1.64-.91-2.93-2.17-3.87-3.78s-1.41-3.41-1.41-5.41,.47-3.81,1.41-5.41c.94-1.61,2.23-2.87,3.87-3.78s3.47-1.37,5.52-1.37c1.51,0,2.89,.24,4.16,.73,1.27,.49,2.35,1.21,3.24,2.16l-.95,.98c-1.67-1.65-3.8-2.47-6.39-2.47-1.75,0-3.33,.4-4.76,1.19s-2.55,1.89-3.36,3.29c-.81,1.4-1.22,2.96-1.22,4.69s.41,3.29,1.22,4.68c.81,1.4,1.93,2.49,3.36,3.29,1.43,.79,3.01,1.19,4.76,1.19,2.58,0,4.71-.83,6.39-2.5l.95,.98c-.89,.95-1.98,1.68-3.26,2.17-1.28,.5-2.66,.74-4.15,.74-2.04,0-3.88-.46-5.52-1.37Z"/>
    <path class="cls-1" d="M246.9,7.96V28.78h-1.52v-9.91h-13.92v9.91h-1.52V7.96h1.52v9.58h13.92V7.96h1.52Z"/>
  </g>
  <g>
    <path class="cls-1" d="M90.06,37.91h-2.03v-.96h5.2v.96h-2.03v5.17h-1.14v-5.17Z"/>
    <path class="cls-1" d="M95.18,42.76c-.5-.27-.9-.65-1.18-1.13-.29-.48-.43-1.02-.43-1.62s.14-1.13,.43-1.62c.29-.48,.68-.86,1.18-1.13s1.07-.41,1.69-.41,1.19,.14,1.69,.41,.9,.65,1.18,1.12,.43,1.02,.43,1.62-.14,1.14-.43,1.62-.68,.85-1.18,1.12-1.07,.41-1.69,.41-1.19-.14-1.69-.41Zm2.79-.87c.33-.18,.58-.44,.77-.77,.19-.33,.28-.7,.28-1.11s-.09-.78-.28-1.11c-.19-.33-.44-.59-.77-.77-.33-.18-.69-.28-1.1-.28s-.78,.09-1.1,.28c-.33,.18-.58,.44-.77,.77-.19,.33-.28,.7-.28,1.11s.09,.78,.28,1.11c.19,.33,.44,.59,.77,.77,.33,.18,.69,.28,1.1,.28s.78-.09,1.1-.28Z"/>
    <path class="cls-1" d="M101.38,36.95h2.68c.65,0,1.23,.13,1.74,.38s.9,.61,1.18,1.08c.28,.46,.42,1,.42,1.61s-.14,1.14-.42,1.61-.67,.82-1.18,1.08-1.09,.38-1.74,.38h-2.68v-6.13Zm2.63,5.17c.45,0,.85-.09,1.19-.26,.34-.17,.6-.42,.79-.74,.18-.32,.28-.69,.28-1.11s-.09-.79-.28-1.11c-.18-.32-.45-.56-.79-.74-.34-.17-.74-.26-1.19-.26h-1.49v4.2h1.49Z"/>
    <path class="cls-1" d="M112.5,41.66h-3.06l-.6,1.42h-1.17l2.76-6.13h1.12l2.77,6.13h-1.19l-.61-1.42Zm-.38-.89l-1.16-2.68-1.15,2.68h2.3Z"/>
    <path class="cls-1" d="M117.5,36.95h1.14v5.17h3.2v.96h-4.34v-6.13Z"/>
    <path class="cls-1" d="M126.76,41.66h-3.06l-.6,1.42h-1.17l2.76-6.13h1.12l2.77,6.13h-1.19l-.61-1.42Zm-.38-.89l-1.16-2.68-1.15,2.68h2.3Z"/>
    <path class="cls-1" d="M133,37.91h-2.03v-.96h5.2v.96h-2.03v5.17h-1.14v-5.17Z"/>
    <path class="cls-1" d="M141.63,42.12v.95h-4.6v-6.13h4.47v.95h-3.34v1.59h2.96v.94h-2.96v1.69h3.46Z"/>
    <path class="cls-1" d="M144.03,42.76c-.5-.27-.89-.65-1.17-1.12-.28-.48-.42-1.02-.42-1.62s.14-1.14,.43-1.62c.29-.48,.68-.85,1.18-1.12,.5-.27,1.06-.41,1.68-.41,.5,0,.96,.09,1.38,.26,.41,.17,.76,.43,1.05,.76l-.74,.69c-.44-.48-.99-.72-1.64-.72-.42,0-.8,.09-1.13,.28-.33,.18-.59,.44-.78,.77-.19,.33-.28,.7-.28,1.11s.09,.79,.28,1.11c.19,.33,.45,.58,.78,.77,.33,.18,.71,.28,1.13,.28,.65,0,1.19-.24,1.64-.73l.74,.7c-.29,.33-.64,.59-1.06,.76-.42,.17-.88,.26-1.38,.26-.62,0-1.18-.14-1.68-.41Z"/>
    <path class="cls-1" d="M154.68,36.95v6.13h-.94l-3.38-4.15v4.15h-1.13v-6.13h.94l3.38,4.15v-4.15h1.13Z"/>
    <path class="cls-1" d="M157.5,42.76c-.5-.27-.9-.65-1.18-1.13-.29-.48-.43-1.02-.43-1.62s.14-1.13,.43-1.62c.29-.48,.68-.86,1.18-1.13s1.07-.41,1.69-.41,1.19,.14,1.69,.41,.9,.65,1.18,1.12,.43,1.02,.43,1.62-.14,1.14-.43,1.62-.68,.85-1.18,1.12-1.07,.41-1.69,.41-1.19-.14-1.69-.41Zm2.79-.87c.33-.18,.58-.44,.77-.77,.19-.33,.28-.7,.28-1.11s-.09-.78-.28-1.11c-.19-.33-.44-.59-.77-.77-.33-.18-.69-.28-1.1-.28s-.78,.09-1.1,.28c-.33,.18-.58,.44-.77,.77-.19,.33-.28,.7-.28,1.11s.09,.78,.28,1.11c.19,.33,.44,.59,.77,.77,.33,.18,.69,.28,1.1,.28s.78-.09,1.1-.28Z"/>
    <path class="cls-1" d="M163.7,36.95h1.14v5.17h3.2v.96h-4.34v-6.13Z"/>
    <path class="cls-1" d="M170,42.76c-.5-.27-.9-.65-1.18-1.13-.29-.48-.43-1.02-.43-1.62s.14-1.13,.43-1.62c.29-.48,.68-.86,1.18-1.13s1.07-.41,1.69-.41,1.19,.14,1.69,.41,.9,.65,1.18,1.12,.43,1.02,.43,1.62-.14,1.14-.43,1.62-.68,.85-1.18,1.12-1.07,.41-1.69,.41-1.19-.14-1.69-.41Zm2.79-.87c.33-.18,.58-.44,.77-.77,.19-.33,.28-.7,.28-1.11s-.09-.78-.28-1.11c-.19-.33-.44-.59-.77-.77-.33-.18-.69-.28-1.1-.28s-.78,.09-1.1,.28c-.33,.18-.58,.44-.77,.77-.19,.33-.28,.7-.28,1.11s.09,.78,.28,1.11c.19,.33,.44,.59,.77,.77,.33,.18,.69,.28,1.1,.28s.78-.09,1.1-.28Z"/>
    <path class="cls-1" d="M180.39,39.94h1.08v2.44c-.32,.25-.68,.44-1.1,.58-.42,.13-.85,.2-1.3,.2-.62,0-1.19-.14-1.69-.41s-.9-.65-1.18-1.12c-.29-.48-.43-1.02-.43-1.62s.14-1.14,.43-1.62c.29-.48,.68-.85,1.19-1.12s1.07-.41,1.7-.41c.51,0,.98,.08,1.4,.25,.42,.17,.77,.42,1.06,.74l-.72,.7c-.47-.47-1.03-.7-1.69-.7-.43,0-.82,.09-1.15,.27-.34,.18-.6,.44-.79,.76-.19,.33-.28,.7-.28,1.12s.09,.78,.28,1.1c.19,.33,.45,.58,.79,.77,.34,.19,.72,.28,1.14,.28,.48,0,.9-.11,1.26-.32v-1.91Z"/>
    <path class="cls-1" d="M182.96,36.95h1.14v6.13h-1.14v-6.13Z"/>
    <path class="cls-1" d="M189.73,41.66h-3.06l-.6,1.42h-1.17l2.76-6.13h1.12l2.77,6.13h-1.19l-.61-1.42Zm-.38-.89l-1.16-2.68-1.15,2.68h2.3Z"/>
    <path class="cls-1" d="M198.71,41.66h-3.06l-.6,1.42h-1.17l2.76-6.13h1.12l2.77,6.13h-1.19l-.61-1.42Zm-.38-.89l-1.16-2.68-1.15,2.68h2.3Z"/>
    <path class="cls-1" d="M207.67,43.69c-.2,.24-.44,.42-.71,.54-.27,.12-.57,.18-.89,.18-.42,0-.81-.09-1.16-.29-.35-.19-.75-.52-1.2-.98-.57-.05-1.07-.21-1.52-.5s-.8-.65-1.05-1.11c-.25-.46-.38-.97-.38-1.53,0-.6,.14-1.13,.43-1.62s.68-.86,1.18-1.13,1.07-.41,1.69-.41,1.19,.14,1.69,.41,.9,.65,1.18,1.12,.43,1.02,.43,1.62c0,.48-.1,.93-.29,1.34-.19,.41-.46,.76-.81,1.05-.34,.29-.74,.5-1.2,.63,.17,.18,.34,.31,.5,.39,.16,.08,.34,.12,.53,.12,.4,0,.75-.16,1.05-.49l.53,.63Zm-5.48-2.57c.19,.33,.44,.59,.77,.77s.69,.28,1.1,.28,.78-.09,1.1-.28c.33-.18,.58-.44,.77-.77,.19-.33,.28-.7,.28-1.11s-.09-.78-.28-1.11c-.19-.33-.44-.59-.77-.77-.33-.18-.7-.28-1.1-.28s-.78,.09-1.1,.28c-.33,.18-.58,.44-.77,.77-.19,.33-.28,.7-.28,1.11s.09,.78,.28,1.11Z"/>
    <path class="cls-1" d="M209.23,42.45c-.47-.48-.71-1.16-.71-2.04v-3.46h1.14v3.42c0,1.2,.52,1.8,1.56,1.8s1.55-.6,1.55-1.8v-3.42h1.12v3.46c0,.89-.24,1.57-.71,2.04s-1.13,.71-1.97,.71-1.51-.24-1.98-.71Z"/>
    <path class="cls-1" d="M215.48,36.95h1.14v6.13h-1.14v-6.13Z"/>
  </g>
</svg>