<?xml version="1.0" encoding="UTF-8"?>
<svg id="Capa_1" data-name="Capa 1" xmlns="http://www.w3.org/2000/svg" viewBox="0 0 10.74 11.21">
  <defs>
    <style>
      .cls-1 {
        fill: #fff;
      }
    </style>
  </defs>
  <path class="cls-1" d="M3.04,9.28l.18,.11c.67,.41,1.43,.64,2.2,.64,2.37,0,4.32-2.01,4.32-4.5S7.8,1.05,5.42,1.05,1.11,3.07,1.11,5.54c0,.82,.21,1.62,.63,2.33l.11,.19-.43,1.68,1.62-.45h0Zm-3.04,1.92l.77-3C.33,7.4,.11,6.48,.11,5.54,.11,2.48,2.49,0,5.42,0s5.32,2.48,5.32,5.54-2.38,5.54-5.32,5.54c-.88,0-1.75-.23-2.52-.67l-2.9,.81Z"/>
  <path class="cls-1" d="M7.4,6.31c-.21-.13-.5-.29-.76-.18-.19,.09-.32,.4-.45,.57-.06,.09-.14,.1-.25,.06-.74-.31-1.31-.83-1.72-1.53-.06-.11-.05-.2,.02-.3,.13-.16,.28-.32,.31-.53,.03-.2-.05-.45-.14-.63-.11-.23-.21-.56-.44-.69-.2-.12-.47-.06-.66,.1-.31,.27-.47,.69-.46,1.11,0,.12,.01,.23,.04,.35,.06,.28,.18,.54,.32,.77,.11,.18,.21,.36,.33,.54,.4,.56,.89,1.05,1.46,1.42,.29,.18,.59,.35,.91,.45,.35,.12,.68,.25,1.06,.18,.41-.08,.81-.34,.97-.75,.04-.12,.08-.26,.04-.38-.05-.26-.4-.41-.6-.55"/>
</svg>